<?xml version="1.0" encoding="utf-8"?>
<!-- Generator: Adobe Illustrator 19.1.0, SVG Export Plug-In . SVG Version: 6.00 Build 0)  -->
<svg version="1.1" id="Capa_1" xmlns="http://www.w3.org/2000/svg" xmlns:xlink="http://www.w3.org/1999/xlink" x="0px" y="0px"
	 viewBox="0 0 905.623 894.012" enable-background="new 0 0 905.623 894.012" xml:space="preserve">
<g>
	<g opacity="0.5">
		<g>
			<path d="M338.914,82.115c-0.316,0.275-0.529,0.579-0.637,0.913c-0.109,0.333-0.163,0.688-0.163,1.063s0.163,0.721,0.487,1.037
				c0.325,0.316,0.754,0.584,1.288,0.8c0.533,0.217,1.142,0.409,1.825,0.575c0.683,0.167,1.379,0.338,2.087,0.513
				c0.708,0.175,1.404,0.375,2.087,0.6c0.683,0.226,1.292,0.513,1.825,0.862c1.183,0.75,1.775,1.775,1.775,3.075
				c0,1.55-0.579,2.733-1.737,3.55c-1.159,0.817-2.763,1.226-4.813,1.226c-2.317,0-4.084-0.483-5.3-1.45
				c-1.083-0.866-1.7-2.1-1.85-3.7h1.95c0.066,1.134,0.616,2,1.65,2.601c0.9,0.517,2.091,0.774,3.575,0.774
				c3.1,0,4.65-0.975,4.65-2.925c0-0.666-0.279-1.191-0.837-1.575c-0.559-0.383-1.259-0.7-2.1-0.95
				c-0.842-0.25-1.75-0.482-2.725-0.699s-1.883-0.496-2.725-0.838s-1.542-0.791-2.1-1.35c-0.559-0.559-0.838-1.313-0.838-2.263
				c0-1.351,0.517-2.45,1.55-3.3c1.033-0.851,2.591-1.275,4.675-1.275c2.1,0,3.725,0.483,4.875,1.45
				c1.05,0.85,1.608,1.941,1.675,3.274h-1.925c-0.167-1.366-1.05-2.274-2.65-2.725c-0.567-0.166-1.271-0.25-2.112-0.25
				c-0.842,0-1.55,0.096-2.125,0.287C339.676,81.607,339.23,81.841,338.914,82.115z"/>
			<path d="M353.938,79.078v2.45h-2.025v-2.45H353.938z M351.988,83.628h1.875v12.5h-1.875V83.628z"/>
			<path d="M358.463,96.128v-10.85h-2.55v-1.65h2.55v-4.475h1.875v4.475h2.875v1.65h-2.875v10.85H358.463z"/>
			<path d="M367.213,79.078v2.45h-2.025v-2.45H367.213z M365.263,83.628h1.875v12.5h-1.875V83.628z"/>
			<path d="M375.812,83.428c1.867,0,3.385,0.625,4.551,1.875c1.1,1.2,1.65,2.726,1.65,4.575s-0.551,3.375-1.65,4.575
				c-1.166,1.25-2.684,1.875-4.551,1.875c-1.865,0-3.383-0.625-4.549-1.875c-1.1-1.2-1.65-2.726-1.65-4.575s0.551-3.375,1.65-4.575
				C372.429,84.053,373.946,83.428,375.812,83.428z M375.812,94.628c1.352,0,2.418-0.467,3.201-1.4c0.75-0.883,1.125-2,1.125-3.35
				s-0.375-2.467-1.125-3.35c-0.783-0.934-1.85-1.4-3.201-1.4c-1.35,0-2.416,0.467-3.199,1.4c-0.75,0.883-1.125,2-1.125,3.35
				s0.375,2.467,1.125,3.35C373.396,94.161,374.462,94.628,375.812,94.628z"/>
			<path d="M395.388,94.628c1.683,0,2.892-0.7,3.625-2.1h2.05c-0.434,1.133-1.121,2.05-2.063,2.75
				c-0.941,0.699-2.154,1.05-3.638,1.05c-1.884,0-3.417-0.625-4.6-1.875c-1.15-1.217-1.726-2.741-1.726-4.575
				c0-1.85,0.551-3.375,1.65-4.575c1.166-1.25,2.684-1.875,4.55-1.875s3.384,0.625,4.55,1.875c1.101,1.2,1.65,2.726,1.65,4.575v0.75
				h-10.475c0.133,1.15,0.591,2.1,1.375,2.85C393.138,94.245,394.154,94.628,395.388,94.628z M395.237,85.128
				c-1.149,0-2.116,0.358-2.899,1.075c-0.734,0.684-1.184,1.575-1.351,2.675h8.5c-0.167-1.1-0.616-1.991-1.35-2.675
				C397.354,85.486,396.388,85.128,395.237,85.128z"/>
			<path d="M405.612,83.628v1.95c0.45-0.601,1-1.108,1.65-1.525c0.649-0.416,1.391-0.625,2.225-0.625c0.833,0,1.55,0.117,2.15,0.351
				c0.6,0.233,1.125,0.583,1.574,1.05c1.033,1.017,1.551,2.358,1.551,4.024v7.275h-1.875v-7.225c0-1.15-0.325-2.066-0.976-2.75
				c-0.649-0.684-1.491-1.025-2.524-1.025c-1.051,0-1.942,0.35-2.676,1.05c-0.733,0.717-1.1,1.634-1.1,2.75v7.2h-1.875v-12.5
				H405.612z"/>
			<path d="M430.987,94.503c1.183,0,2.221-0.3,3.112-0.9c0.892-0.6,1.554-1.408,1.987-2.425h1.975c-0.55,1.567-1.458,2.8-2.725,3.7
				c-1.35,0.967-2.941,1.45-4.775,1.45c-2.416,0-4.375-0.825-5.875-2.476c-1.416-1.583-2.125-3.583-2.125-6
				c0-2.416,0.709-4.416,2.125-6c1.5-1.649,3.459-2.475,5.875-2.475c1.834,0,3.426,0.483,4.775,1.45
				c1.267,0.899,2.175,2.134,2.725,3.7h-1.975c-0.434-1.017-1.096-1.825-1.987-2.426c-0.892-0.6-1.93-0.899-3.112-0.899
				c-1.184,0-2.167,0.171-2.95,0.513c-0.784,0.342-1.442,0.813-1.976,1.412c-1.083,1.217-1.625,2.792-1.625,4.725
				c0,1.934,0.542,3.509,1.625,4.726C427.195,93.861,428.837,94.503,430.987,94.503z"/>
			<path d="M445.887,83.428c1.866,0,3.384,0.625,4.55,1.875c1.101,1.2,1.65,2.726,1.65,4.575s-0.55,3.375-1.65,4.575
				c-1.166,1.25-2.684,1.875-4.55,1.875s-3.384-0.625-4.55-1.875c-1.1-1.2-1.65-2.726-1.65-4.575s0.551-3.375,1.65-4.575
				C442.503,84.053,444.021,83.428,445.887,83.428z M445.887,94.628c1.351,0,2.417-0.467,3.2-1.4c0.75-0.883,1.125-2,1.125-3.35
				s-0.375-2.467-1.125-3.35c-0.783-0.934-1.85-1.4-3.2-1.4c-1.35,0-2.417,0.467-3.2,1.4c-0.75,0.883-1.125,2-1.125,3.35
				s0.375,2.467,1.125,3.35C443.47,94.161,444.537,94.628,445.887,94.628z"/>
			<path d="M456.436,83.628v1.95c0.45-0.601,1-1.108,1.65-1.525c0.649-0.416,1.391-0.625,2.225-0.625c0.833,0,1.55,0.117,2.15,0.351
				c0.6,0.233,1.125,0.583,1.574,1.05c1.033,1.017,1.551,2.358,1.551,4.024v7.275h-1.875v-7.225c0-1.15-0.325-2.066-0.976-2.75
				c-0.649-0.684-1.491-1.025-2.524-1.025c-1.051,0-1.942,0.35-2.676,1.05c-0.733,0.717-1.1,1.634-1.1,2.75v7.2h-1.875v-12.5
				H456.436z"/>
			<path d="M476.06,86.977c-0.166-1.3-1.212-1.949-3.137-1.949c-1.926,0-2.888,0.6-2.888,1.8c0,0.5,0.204,0.879,0.612,1.138
				c0.408,0.258,0.921,0.471,1.537,0.637c0.617,0.167,1.288,0.321,2.013,0.463c0.726,0.142,1.396,0.342,2.013,0.6
				c0.616,0.259,1.129,0.613,1.537,1.063c0.408,0.45,0.613,1.067,0.613,1.851c0,1.217-0.459,2.146-1.375,2.787
				c-0.917,0.642-2.159,0.963-3.726,0.963c-1.667,0-2.991-0.417-3.975-1.25c-0.9-0.733-1.384-1.691-1.45-2.875h1.95
				c0.116,1.149,0.767,1.925,1.95,2.325c0.433,0.133,0.862,0.199,1.287,0.199s0.82-0.024,1.188-0.074
				c0.366-0.051,0.725-0.142,1.075-0.275c0.8-0.316,1.2-0.858,1.2-1.625c0-0.517-0.205-0.912-0.613-1.188s-0.921-0.5-1.537-0.675
				c-0.617-0.175-1.287-0.333-2.013-0.476c-0.725-0.141-1.396-0.337-2.013-0.587c-0.616-0.25-1.129-0.592-1.537-1.025
				c-0.408-0.433-0.612-1.033-0.612-1.8c0-1.133,0.412-2.013,1.237-2.638s2.046-0.938,3.662-0.938c1.533,0,2.742,0.367,3.625,1.101
				c0.733,0.616,1.158,1.434,1.275,2.449H476.06z"/>
			<path d="M482.11,96.128v-10.85h-2.55v-1.65h2.55v-4.475h1.875v4.475h2.875v1.65h-2.875v10.85H482.11z"/>
			<path d="M495.509,83.428v1.875h-0.225c-1.35,0-2.45,0.542-3.3,1.625c-0.8,1.034-1.2,2.267-1.2,3.7v5.5h-1.875v-12.5h1.875v3.075
				c0.4-1.3,1.267-2.259,2.6-2.875c0.551-0.267,1.217-0.4,2-0.4H495.509z"/>
			<path d="M506.56,96.128v-1.95c-0.45,0.601-1,1.108-1.65,1.525s-1.392,0.625-2.225,0.625c-0.834,0-1.551-0.117-2.15-0.351
				c-0.6-0.232-1.125-0.583-1.575-1.05c-1.033-1.017-1.55-2.358-1.55-4.024v-7.275h1.875v7.225c0,1.15,0.325,2.067,0.975,2.75
				c0.65,0.684,1.492,1.025,2.525,1.025c1.05,0,1.941-0.35,2.675-1.05c0.733-0.717,1.101-1.634,1.101-2.75v-7.2h1.875v12.5H506.56z"
				/>
			<path d="M517.459,94.628c0.8,0,1.508-0.225,2.125-0.675c0.616-0.45,1.066-1.033,1.35-1.75h2.025
				c-0.384,1.233-1.084,2.225-2.101,2.975c-1.066,0.767-2.333,1.15-3.8,1.15c-1.834,0-3.325-0.625-4.475-1.875
				c-1.117-1.217-1.676-2.741-1.676-4.575c0-1.833,0.559-3.358,1.676-4.575c1.149-1.25,2.641-1.875,4.475-1.875
				c1.467,0,2.733,0.384,3.8,1.15c1.017,0.75,1.717,1.741,2.101,2.975h-2.025c-0.283-0.716-0.733-1.3-1.35-1.75
				c-0.617-0.45-1.325-0.675-2.125-0.675c-0.801,0-1.479,0.125-2.038,0.375s-1.029,0.592-1.412,1.025
				c-0.817,0.899-1.226,2.017-1.226,3.35c0,1.334,0.408,2.45,1.226,3.35C514.842,94.161,515.993,94.628,517.459,94.628z"/>
			<path d="M531.059,94.628c0.8,0,1.508-0.225,2.125-0.675c0.616-0.45,1.066-1.033,1.35-1.75h2.025
				c-0.384,1.233-1.084,2.225-2.101,2.975c-1.066,0.767-2.333,1.15-3.8,1.15c-1.834,0-3.325-0.625-4.475-1.875
				c-1.117-1.217-1.676-2.741-1.676-4.575c0-1.833,0.559-3.358,1.676-4.575c1.149-1.25,2.641-1.875,4.475-1.875
				c1.467,0,2.733,0.384,3.8,1.15c1.017,0.75,1.717,1.741,2.101,2.975h-2.025c-0.283-0.716-0.733-1.3-1.35-1.75
				c-0.617-0.45-1.325-0.675-2.125-0.675c-0.801,0-1.479,0.125-2.038,0.375s-1.029,0.592-1.412,1.025
				c-0.817,0.899-1.226,2.017-1.226,3.35c0,1.334,0.408,2.45,1.226,3.35C528.442,94.161,529.592,94.628,531.059,94.628z"/>
			<path d="M540.833,79.078v2.45h-2.025v-2.45H540.833z M538.883,83.628h1.875v12.5h-1.875V83.628z"/>
			<path d="M549.433,83.428c1.866,0,3.384,0.625,4.55,1.875c1.101,1.2,1.65,2.726,1.65,4.575s-0.55,3.375-1.65,4.575
				c-1.166,1.25-2.684,1.875-4.55,1.875s-3.384-0.625-4.55-1.875c-1.1-1.2-1.65-2.726-1.65-4.575s0.551-3.375,1.65-4.575
				C546.049,84.053,547.567,83.428,549.433,83.428z M549.433,94.628c1.351,0,2.417-0.467,3.2-1.4c0.75-0.883,1.125-2,1.125-3.35
				s-0.375-2.467-1.125-3.35c-0.783-0.934-1.85-1.4-3.2-1.4c-1.35,0-2.417,0.467-3.2,1.4c-0.75,0.883-1.125,2-1.125,3.35
				s0.375,2.467,1.125,3.35C547.016,94.161,548.083,94.628,549.433,94.628z M549.159,79.253h2.675l-2.675,2.625h-1.525
				L549.159,79.253z"/>
			<path d="M559.983,83.628v1.95c0.45-0.601,1-1.108,1.65-1.525c0.649-0.416,1.391-0.625,2.225-0.625c0.833,0,1.55,0.117,2.15,0.351
				c0.6,0.233,1.125,0.583,1.574,1.05c1.033,1.017,1.551,2.358,1.551,4.024v7.275h-1.875v-7.225c0-1.15-0.325-2.066-0.976-2.75
				c-0.649-0.684-1.491-1.025-2.524-1.025c-1.051,0-1.942,0.35-2.676,1.05c-0.733,0.717-1.1,1.634-1.1,2.75v7.2h-1.875v-12.5
				H559.983z"/>
		</g>
	</g>
	<g>
		<g>
			<g>
				<path d="M513.512,635.322c-2.053,2.536-4.256,2.98-6.742,2.98c-2.803,0-4.937-1.003-6.404-3.004
					c-1.466-2.002-1.918-4.903-1.918-8.703c0-3.76,0.467-6.661,1.965-8.703c1.498-2.044,3.616-3.064,6.357-3.064
					c2.028,0,3.647,0.539,4.859,1.619c1.212,1.08,2.11,2.782,2.691,5.105l-1.973,0.413c-0.489-1.824-1.19-3.169-2.1-4.036
					c-0.912-0.865-2.081-1.298-3.508-1.298c-2.037,0-3.611,0.843-4.722,2.528c-1.111,1.687-1.383,4.08-1.383,7.176
					c0,3.342,0.281,5.863,1.406,7.565s2.799,2.552,5.021,2.552c4.649,0,5.851-3.372,5.851-5.258v-2.414h-5.912v-1.697h7.886
					C514.885,630.652,514.885,633.431,513.512,635.322z"/>
				<path d="M529.18,615.255c2.68,0,4.626,0.29,6.052,1.543c3.11,2.731,2.966,8.306,0.944,10.784
					c-1.053,1.29-1.799,1.748-3.418,2.116l5.44,8.16h-2.368l-5.258-7.854h-5.578v7.854h-2.094v-22.603H529.18z M529.471,617.073
					h-4.477v11.158h5.103c1.6,0,3.218-0.359,4.061-1.138c2.063-1.905,2.004-6.915-0.201-8.95
					C533.101,617.353,531.366,617.073,529.471,617.073z"/>
				<path d="M628.594,652.816c2.68,0,4.626,0.29,6.052,1.543c3.11,2.731,2.966,8.305,0.944,10.784
					c-1.053,1.29-1.799,1.748-3.418,2.116l5.44,8.16h-2.368l-5.258-7.854h-5.578v7.854h-2.094v-22.603H628.594z M628.884,654.633
					h-4.477v11.158h5.103c1.6,0,3.218-0.359,4.061-1.138c2.063-1.905,2.004-6.915-0.201-8.95
					C632.514,654.913,630.78,654.633,628.884,654.633z"/>
				<path d="M546.312,690.374c2.68,0,4.626,0.29,6.052,1.543c3.11,2.731,2.966,8.306,0.944,10.784
					c-1.053,1.29-1.799,1.748-3.418,2.116l5.44,8.16h-2.368l-5.258-7.854h-5.578v7.854h-2.094v-22.603H546.312z M546.603,692.192
					h-4.477v11.158h5.103c1.6,0,3.218-0.359,4.061-1.138c2.063-1.906,2.004-6.915-0.201-8.95
					C550.232,692.472,548.498,692.192,546.603,692.192z"/>
				<path d="M622.732,727.934c2.68,0,4.626,0.29,6.052,1.543c3.11,2.731,2.966,8.306,0.944,10.784
					c-1.053,1.29-1.799,1.748-3.418,2.116l5.44,8.16h-2.368l-5.258-7.854h-5.578v7.854h-2.094v-22.603H622.732z M623.023,729.752
					h-4.477v11.158h5.103c1.6,0,3.218-0.359,4.061-1.138c2.063-1.905,2.004-6.915-0.201-8.95
					C626.652,730.032,624.918,729.752,623.023,729.752z"/>
				<path d="M575.744,615.255c2.68,0,4.626,0.29,6.052,1.543c3.11,2.731,2.966,8.306,0.944,10.784
					c-1.053,1.29-1.799,1.748-3.418,2.116l-2.186,0.305h-5.578v7.854h-2.094v-22.603H575.744z M576.035,617.073h-4.477v11.158h5.103
					c1.6,0,3.218-0.359,4.061-1.138c2.063-1.905,2.004-6.915-0.201-8.95C579.664,617.353,577.93,617.073,576.035,617.073z"/>
				<path d="M546.961,630.477c0,1.905,0.513,3.372,1.543,4.401c1.028,1.03,2.506,1.543,4.431,1.543c1.916,0,3.385-0.513,4.409-1.543
					c1.025-1.028,1.537-2.496,1.537-4.401v-15.222h2.094v15.222c0,2.506-0.688,4.427-2.063,5.762
					c-1.375,1.333-3.368,2.002-5.976,2.002c-2.607,0-4.606-0.668-5.991-2.002c-1.385-1.335-2.078-3.256-2.078-5.762v-15.222h2.094
					V630.477z"/>
				<path d="M588.818,626.564c0-3.536,0.446-6.366,2.072-8.49c1.624-2.125,3.766-3.187,6.427-3.187c2.659,0,4.793,1.062,6.403,3.187
					c1.609,2.125,2.07,4.955,2.07,8.49c0,3.535-0.461,6.365-2.07,8.49c-1.61,2.125-3.744,3.187-6.403,3.187
					c-2.66,0-4.803-1.062-6.427-3.187C589.264,632.93,588.818,630.1,588.818,626.564z M591.019,626.564
					c0,3.056,0.23,5.463,1.423,7.221c1.191,1.758,2.817,2.636,4.875,2.636c2.057,0,3.682-0.878,4.874-2.636
					c1.193-1.758,1.444-4.165,1.444-7.221c0-3.067-0.251-5.476-1.444-7.229c-1.191-1.752-2.817-2.628-4.874-2.628
					c-2.058,0-3.684,0.877-4.875,2.628C591.248,621.088,591.019,623.497,591.019,626.564z"/>
				<path d="M500.198,675.418v-22.603h2.094v22.603H500.198z"/>
				<path d="M513.029,654.451v20.968h-2.032v-22.603h3.408l10.836,19.072v-19.072h2.032v22.603h-2.231L513.029,654.451z"/>
				<path d="M561.035,668.038c0,1.905,0.513,3.372,1.543,4.401c1.028,1.03,2.505,1.543,4.431,1.543c1.916,0,3.385-0.513,4.409-1.543
					c1.025-1.028,1.537-2.496,1.537-4.401v-15.222h2.094v15.222c0,2.505-0.688,4.427-2.063,5.762
					c-1.375,1.333-3.368,2.002-5.976,2.002c-2.607,0-4.606-0.668-5.991-2.002c-1.385-1.335-2.078-3.256-2.078-5.762v-15.222h2.094
					V668.038z"/>
				<path d="M581.751,670.009l1.819-0.749c0.61,1.609,1.393,2.799,2.346,3.568c0.952,0.77,2.121,1.154,3.508,1.154
					c1.426,0,2.575-0.402,3.445-1.208c0.872-0.804,1.308-1.865,1.308-3.179c0-1.049-0.286-1.913-0.856-2.589
					c-0.572-0.678-1.539-1.298-2.904-1.858c-0.744-0.295-1.729-0.652-2.958-1.069c-1.229-0.418-2.015-0.73-2.362-0.933
					c-1.09-0.631-1.865-1.304-2.323-2.016c-0.458-0.714-0.688-1.595-0.688-2.644c0-1.874,0.576-3.35,1.727-4.425
					c1.151-1.075,2.736-1.613,4.753-1.613c1.794,0,3.274,0.441,4.441,1.322c1.166,0.881,2.055,2.234,2.665,4.059l-1.773,0.565
					c-0.56-1.406-1.28-2.446-2.162-3.117c-0.881-0.673-1.97-1.009-3.263-1.009c-1.254,0-2.27,0.362-3.05,1.085
					c-0.78,0.723-1.169,1.666-1.169,2.827c0,0.877,0.252,1.616,0.755,2.217c0.505,0.602,1.287,1.091,2.347,1.467
					c0.407,0.153,0.998,0.362,1.773,0.626c2.22,0.754,3.652,1.35,4.294,1.789c1.028,0.672,1.774,1.408,2.239,2.208
					c0.463,0.799,0.694,1.745,0.694,2.835c0,1.976-0.623,3.55-1.871,4.722c-1.248,1.172-2.937,1.758-5.066,1.758
					c-1.916,0-3.493-0.47-4.73-1.406C583.456,673.457,582.474,671.994,581.751,670.009z"/>
				<path d="M607.342,675.418v-20.785h-6.693v-1.818h15.496v1.818h-6.693v20.785H607.342z"/>
				<path d="M644.589,675.418v-22.603h2.094v22.603H644.589z"/>
				<path d="M653.003,675.418l7.076-22.603h2.812l7.076,22.603h-2.155l-2.262-7.412h-8.253l-2.262,7.412H653.003z M657.848,666.187
					h7.168l-3.561-11.554L657.848,666.187z"/>
				<path d="M676.257,675.418v-22.603h2.094v20.784h10.117v1.819H676.257z"/>
				<path d="M504.522,712.977l-7.549-22.603h2.155l6.357,19.623l6.388-19.623h2.125l-7.534,22.603H504.522z"/>
				<path d="M533.258,711.158v1.819h-13.433v-22.603h12.959v1.818h-10.865v7.917h10.1v1.819h-10.1v9.229H533.258z M526.542,688.311
					h-2.056l3.195-5.35h2.056L526.542,688.311z"/>
				<path d="M566.81,712.977v-20.785h-6.693v-1.818h15.496v1.818h-6.693v20.785H566.81z"/>
				<path d="M582.373,712.977v-22.603h2.094v22.603H582.373z"/>
				<path d="M608.22,706.161c-0.52,2.425-1.414,4.231-2.681,5.418c-1.269,1.187-2.943,1.781-5.021,1.781
					c-2.732,0-4.837-1.032-6.32-3.095c-1.482-2.063-1.621-5-1.621-8.811c0-3.689,0.139-6.529,1.621-8.521
					c1.484-1.991,3.589-2.987,6.32-2.987c1.926,0,3.502,0.529,4.73,1.589c1.227,1.061,2.147,2.69,2.759,4.89l-1.942,0.458
					c-0.57-1.752-1.317-3.046-2.239-3.881c-0.922-0.836-2.065-1.253-3.431-1.253c-1.987,0-3.521,0.852-4.599,2.559
					c-1.08,1.706-1.019,4.134-1.019,7.282c0,3.138-0.037,5.581,1.095,7.329c1.13,1.747,2.711,2.62,4.738,2.62
					c1.508,0,2.735-0.476,3.682-1.429c0.948-0.952,1.64-2.407,2.079-4.364L608.22,706.161z"/>
				<path d="M628.397,711.158v1.819h-13.433v-22.603h12.959v1.818h-10.865v7.917h10.1v1.819h-10.1v9.229H628.397z"/>
				<path d="M500.046,750.537v-22.603h5.502c3.535,0,5.01,0.919,6.792,2.757c1.784,1.84,2.675,4.583,2.675,8.23
					c0,3.8-0.904,6.687-2.712,8.658c-1.81,1.971-3.271,2.958-6.755,2.958H500.046z M502.14,748.718h3.163
					c2.966,0,3.972-0.765,5.388-2.299c1.416-1.534,2.125-3.905,2.125-7.115c0-3.403-0.668-5.846-2.002-7.328
					c-1.335-1.484-2.351-2.225-5.418-2.225h-3.255V748.718z"/>
				<path d="M536.336,675.418v-22.603h5.502c3.535,0,5.01,0.919,6.792,2.757c1.784,1.84,2.675,4.583,2.675,8.23
					c0,3.8-0.904,6.687-2.712,8.658c-1.81,1.971-3.271,2.958-6.755,2.958H536.336z M538.43,673.599h3.163
					c2.966,0,3.972-0.765,5.388-2.299c1.416-1.534,2.125-3.905,2.125-7.115c0-3.403-0.668-5.846-2.002-7.328
					c-1.335-1.484-2.351-2.225-5.418-2.225h-3.255V673.599z"/>
				<path d="M535.778,748.718v1.819h-13.433v-22.603h12.959v1.818h-10.865v7.917h9.423v1.819h-9.423v9.229H535.778z"/>
				<path d="M542.851,750.537v-22.603h2.094v20.783h10.117v1.819H542.851z"/>
				<path d="M570.573,745.127l1.819-0.749c0.61,1.61,1.393,2.799,2.346,3.568c0.953,0.77,2.121,1.154,3.508,1.154
					c1.425,0,2.575-0.402,3.445-1.208c0.872-0.804,1.308-1.865,1.308-3.179c0-1.049-0.286-1.913-0.856-2.589
					c-0.571-0.678-1.539-1.298-2.904-1.858c-0.744-0.295-1.729-0.652-2.958-1.069c-1.229-0.418-2.015-0.73-2.362-0.933
					c-1.09-0.631-1.865-1.304-2.323-2.016c-0.458-0.714-0.688-1.595-0.688-2.644c0-1.874,0.576-3.35,1.727-4.425
					c1.151-1.075,2.736-1.613,4.753-1.613c1.794,0,3.274,0.441,4.441,1.322c1.166,0.881,2.055,2.234,2.665,4.059l-1.773,0.565
					c-0.56-1.406-1.28-2.446-2.162-3.117c-0.881-0.673-1.97-1.009-3.263-1.009c-1.254,0-2.27,0.362-3.05,1.085
					c-0.78,0.723-1.169,1.666-1.169,2.827c0,0.877,0.252,1.616,0.756,2.217c0.505,0.602,1.287,1.091,2.347,1.467
					c0.407,0.153,0.998,0.362,1.773,0.626c2.22,0.754,3.652,1.35,4.294,1.789c1.028,0.672,1.774,1.408,2.239,2.208
					c0.463,0.799,0.694,1.745,0.694,2.835c0,1.976-0.623,3.55-1.871,4.722s-2.937,1.758-5.066,1.758c-1.916,0-3.494-0.47-4.73-1.406
					C572.278,748.576,571.296,747.113,570.573,745.127z"/>
				<path d="M593.919,743.156c0,1.905,0.513,3.372,1.543,4.401c1.028,1.03,2.506,1.543,4.431,1.543c1.916,0,3.385-0.513,4.409-1.543
					c1.025-1.028,1.537-2.496,1.537-4.401v-15.222h2.094v15.222c0,2.506-0.688,4.427-2.063,5.762
					c-1.375,1.333-3.368,2.002-5.976,2.002c-2.607,0-4.606-0.668-5.991-2.002c-1.385-1.335-2.078-3.256-2.078-5.762v-15.222h2.094
					V743.156z"/>
				<path d="M651.762,748.718v1.819h-13.433v-22.603h12.959v1.818h-10.865v7.917h10.1v1.819h-10.1v9.229H651.762z"/>
				<path d="M656.155,745.127l1.819-0.749c0.61,1.61,1.393,2.799,2.346,3.568c0.953,0.77,2.121,1.154,3.508,1.154
					c1.426,0,2.575-0.402,3.445-1.208c0.872-0.804,1.308-1.865,1.308-3.179c0-1.049-0.286-1.913-0.856-2.589
					c-0.571-0.678-1.538-1.298-2.904-1.858c-0.744-0.295-1.729-0.652-2.958-1.069c-1.229-0.418-2.015-0.73-2.362-0.933
					c-1.09-0.631-1.865-1.304-2.323-2.016c-0.458-0.714-0.688-1.595-0.688-2.644c0-1.874,0.576-3.35,1.727-4.425
					c1.151-1.075,2.736-1.613,4.753-1.613c1.794,0,3.274,0.441,4.441,1.322c1.166,0.881,2.055,2.234,2.665,4.059l-1.773,0.565
					c-0.56-1.406-1.28-2.446-2.162-3.117c-0.881-0.673-1.969-1.009-3.263-1.009c-1.254,0-2.27,0.362-3.05,1.085
					c-0.78,0.723-1.169,1.666-1.169,2.827c0,0.877,0.252,1.616,0.756,2.217c0.505,0.602,1.287,1.091,2.347,1.467
					c0.407,0.153,0.998,0.362,1.773,0.626c2.22,0.754,3.652,1.35,4.294,1.789c1.028,0.672,1.774,1.408,2.239,2.208
					c0.463,0.799,0.694,1.745,0.694,2.835c0,1.976-0.623,3.55-1.871,4.722s-2.937,1.758-5.066,1.758c-1.916,0-3.493-0.47-4.73-1.406
					C657.859,748.576,656.878,747.113,656.155,745.127z"/>
				<path d="M681.684,750.537v-20.785h-6.693v-1.818h15.496v1.818h-6.693v20.785H681.684z"/>
				<path d="M709.842,748.718v1.819h-13.433v-22.603h12.959v1.818h-10.865v7.917h10.1v1.819h-10.1v9.229H709.842z"/>
			</g>
		</g>
		<rect x="452.916" y="614.828" width="1.527" height="136.092"/>
		<g opacity="0.5">
			<g>
				<path d="M237.174,621.277v6.359h10.542v2.092h-10.542v6.388h11.802v2.063h-13.95v-18.963h13.95v2.062H237.174z"/>
				<path d="M260.205,628.382l7.563,9.797h-2.721l-6.159-8.136l-6.13,8.136h-2.721l7.562-9.797l-7.047-9.166h2.721l5.615,7.447
					l5.643-7.447h2.721L260.205,628.382z"/>
				<path d="M283.465,621.277h-6.617v16.901h-2.148v-16.901h-6.617v-2.062h15.383V621.277z"/>
				<path d="M288.334,638.179h-2.148v-18.963h9.081c1.928,0,3.475,0.534,4.641,1.604c1.164,1.051,1.747,2.492,1.747,4.325
					c0,2.368-0.984,3.982-2.95,4.842c-0.555,0.248-1.099,0.43-1.633,0.544l4.983,7.648h-2.549l-4.583-7.276h-6.589V638.179z
					 M288.334,628.869h6.56c2.024,0,3.418-0.631,4.183-1.891c0.286-0.478,0.43-1.089,0.43-1.834c0-1.203-0.411-2.152-1.231-2.85
					c-0.822-0.697-1.91-1.046-3.266-1.046h-6.675V628.869z"/>
				<path d="M321.906,638.179h-2.377l-2.32-5.5h-9.396l-2.32,5.5h-2.378l8.05-18.963h2.692L321.906,638.179z M316.378,630.702
					l-3.867-9.253l-3.867,9.253H316.378z"/>
				<path d="M332.391,636.316c1.356,0,2.545-0.344,3.566-1.031s1.78-1.613,2.277-2.778h2.263c-0.63,1.795-1.671,3.208-3.122,4.239
					c-1.547,1.108-3.37,1.662-5.471,1.662c-2.77,0-5.014-0.945-6.732-2.836c-1.623-1.814-2.435-4.106-2.435-6.875
					s0.812-5.061,2.435-6.875c1.719-1.891,3.963-2.836,6.732-2.836c2.101,0,3.924,0.554,5.471,1.661
					c1.451,1.031,2.492,2.445,3.122,4.239h-2.263c-0.497-1.164-1.256-2.091-2.277-2.778s-2.21-1.031-3.566-1.031
					s-2.482,0.196-3.38,0.587c-0.897,0.393-1.652,0.932-2.263,1.619c-1.242,1.395-1.862,3.198-1.862,5.414
					c0,2.215,0.62,4.02,1.862,5.414C328.046,635.582,329.928,636.316,332.391,636.316z"/>
				<path d="M352.013,636.316c1.356,0,2.545-0.344,3.566-1.031s1.78-1.613,2.277-2.778h2.263c-0.63,1.795-1.671,3.208-3.122,4.239
					c-1.547,1.108-3.37,1.662-5.471,1.662c-2.77,0-5.014-0.945-6.732-2.836c-1.623-1.814-2.435-4.106-2.435-6.875
					s0.812-5.061,2.435-6.875c1.719-1.891,3.963-2.836,6.732-2.836c2.101,0,3.924,0.554,5.471,1.661
					c1.451,1.031,2.492,2.445,3.122,4.239h-2.263c-0.497-1.164-1.256-2.091-2.277-2.778s-2.21-1.031-3.566-1.031
					s-2.482,0.196-3.38,0.587c-0.897,0.393-1.652,0.932-2.263,1.619c-1.242,1.395-1.862,3.198-1.862,5.414
					c0,2.215,0.62,4.02,1.862,5.414C347.668,635.582,349.55,636.316,352.013,636.316z"/>
				<path d="M365.476,638.179h-2.148v-18.963h2.148V638.179z"/>
				<path d="M378.538,618.986c2.826,0,5.146,0.945,6.961,2.836c1.775,1.833,2.664,4.125,2.664,6.875s-0.889,5.041-2.664,6.875
					c-1.814,1.891-4.135,2.836-6.961,2.836s-5.146-0.945-6.961-2.836c-1.776-1.834-2.664-4.125-2.664-6.875s0.888-5.042,2.664-6.875
					C373.392,619.932,375.712,618.986,378.538,618.986z M378.538,636.316c2.253,0,4.077-0.734,5.472-2.205
					c1.336-1.413,2.005-3.218,2.005-5.414s-0.669-4.001-2.005-5.414c-1.395-1.471-3.219-2.206-5.472-2.206
					c-2.254,0-4.077,0.735-5.472,2.206c-1.337,1.413-2.005,3.218-2.005,5.414s0.668,4.001,2.005,5.414
					C374.461,635.582,376.284,636.316,378.538,636.316z M378.194,614.689h3.065l-3.065,3.008h-1.747L378.194,614.689z"/>
				<path d="M407.957,619.216v18.963h-2.492l-11.716-16.013v16.013h-2.148v-18.963h2.492l11.716,15.955v-15.955H407.957z"/>
			</g>
		</g>
		<g opacity="0.5">
			<path d="M200.249,674.489h-2.148v-18.963h2.148V674.489z"/>
			<path d="M223.337,655.526v18.963h-2.148v-15.698l-7.018,9.023l-7.133-9.023v15.698h-2.148v-18.963h2.492l6.789,8.994l6.674-8.994
				H223.337z"/>
			<path d="M230.126,674.489h-2.148v-18.963h8.536c2.005,0,3.6,0.554,4.784,1.661c1.165,1.107,1.747,2.588,1.747,4.439
				c0,1.872-0.587,3.356-1.762,4.455c-1.174,1.098-2.764,1.646-4.77,1.646h-6.388V674.489z M230.126,657.559v8.164h6.245
				c1.49,0,2.616-0.362,3.38-1.089c0.764-0.726,1.146-1.723,1.146-2.993c0-1.27-0.382-2.268-1.146-2.993
				c-0.764-0.726-1.891-1.089-3.38-1.089H230.126z"/>
			<path d="M254.389,655.297c2.826,0,5.146,0.945,6.961,2.836c1.776,1.833,2.664,4.125,2.664,6.875s-0.888,5.041-2.664,6.875
				c-1.814,1.891-4.135,2.836-6.961,2.836c-2.827,0-5.147-0.945-6.961-2.836c-1.776-1.834-2.664-4.125-2.664-6.875
				s0.888-5.042,2.664-6.875C249.242,656.242,251.563,655.297,254.389,655.297z M254.389,672.627c2.253,0,4.077-0.734,5.471-2.205
				c1.336-1.413,2.005-3.218,2.005-5.414s-0.669-4.001-2.005-5.414c-1.394-1.471-3.218-2.206-5.471-2.206
				c-2.254,0-4.078,0.735-5.471,2.206c-1.337,1.413-2.005,3.218-2.005,5.414s0.668,4.001,2.005,5.414
				C250.312,671.892,252.135,672.627,254.389,672.627z"/>
			<path d="M269.6,674.489h-2.148v-18.963h9.081c1.929,0,3.476,0.534,4.641,1.604c1.165,1.051,1.748,2.492,1.748,4.325
				c0,2.368-0.984,3.982-2.951,4.842c-0.554,0.248-1.098,0.43-1.633,0.544l4.984,7.648h-2.549l-4.583-7.276H269.6V674.489z
				 M269.6,665.18h6.56c2.024,0,3.418-0.631,4.183-1.891c0.286-0.478,0.43-1.089,0.43-1.834c0-1.203-0.411-2.152-1.232-2.85
				c-0.821-0.697-1.91-1.046-3.266-1.046H269.6V665.18z"/>
			<path d="M299.821,657.588h-6.617v16.901h-2.148v-16.901h-6.617v-2.062h15.383V657.588z"/>
			<path d="M317.41,674.489h-2.377l-2.32-5.5h-9.396l-2.32,5.5h-2.377l8.049-18.963h2.693L317.41,674.489z M311.881,667.013
				l-3.867-9.253l-3.867,9.253H311.881z"/>
			<path d="M327.894,672.627c1.356,0,2.545-0.344,3.566-1.031s1.781-1.613,2.277-2.778H336c-0.63,1.795-1.671,3.208-3.123,4.239
				c-1.547,1.108-3.371,1.662-5.471,1.662c-2.769,0-5.013-0.945-6.731-2.836c-1.624-1.814-2.435-4.106-2.435-6.875
				s0.812-5.061,2.435-6.875c1.719-1.891,3.962-2.836,6.731-2.836c2.101,0,3.924,0.554,5.471,1.661
				c1.451,1.031,2.492,2.445,3.123,4.239h-2.263c-0.497-1.164-1.256-2.091-2.277-2.778s-2.21-1.031-3.566-1.031
				s-2.482,0.196-3.38,0.587c-0.898,0.393-1.652,0.932-2.263,1.619c-1.242,1.395-1.862,3.198-1.862,5.414
				c0,2.215,0.62,4.02,1.862,5.414C323.549,671.892,325.43,672.627,327.894,672.627z"/>
			<path d="M341.357,674.489h-2.148v-18.963h2.148V674.489z"/>
			<path d="M354.419,655.297c2.826,0,5.146,0.945,6.961,2.836c1.776,1.833,2.664,4.125,2.664,6.875s-0.888,5.041-2.664,6.875
				c-1.814,1.891-4.135,2.836-6.961,2.836c-2.827,0-5.147-0.945-6.961-2.836c-1.776-1.834-2.664-4.125-2.664-6.875
				s0.888-5.042,2.664-6.875C349.272,656.242,351.593,655.297,354.419,655.297z M354.419,672.627c2.253,0,4.077-0.734,5.471-2.205
				c1.336-1.413,2.005-3.218,2.005-5.414s-0.669-4.001-2.005-5.414c-1.394-1.471-3.218-2.206-5.471-2.206
				c-2.254,0-4.078,0.735-5.471,2.206c-1.337,1.413-2.005,3.218-2.005,5.414s0.668,4.001,2.005,5.414
				C350.342,671.892,352.166,672.627,354.419,672.627z M354.076,651h3.065l-3.065,3.008h-1.748L354.076,651z"/>
			<path d="M383.838,655.526v18.963h-2.492l-11.716-16.013v16.013h-2.148v-18.963h2.492l11.716,15.955v-15.955H383.838z"/>
			<path d="M402.343,674.489h-2.148v-7.505l-7.964-11.458h2.607l6.417,9.224l6.417-9.224h2.607l-7.935,11.458V674.489z"/>
		</g>
		<g opacity="0.5">
			<g>
				<path d="M286.274,692.816v18.963h-2.148v-15.698l-7.018,9.023l-7.133-9.023v15.698h-2.148v-18.963h2.492l6.789,8.994
					l6.674-8.994H286.274z"/>
				<path d="M299.336,692.587c2.826,0,5.146,0.945,6.961,2.836c1.776,1.833,2.664,4.125,2.664,6.875s-0.888,5.041-2.664,6.875
					c-1.814,1.891-4.135,2.836-6.961,2.836c-2.827,0-5.147-0.945-6.961-2.836c-1.776-1.834-2.664-4.125-2.664-6.875
					s0.888-5.042,2.664-6.875C294.189,693.532,296.51,692.587,299.336,692.587z M299.336,709.917c2.253,0,4.077-0.734,5.471-2.205
					c1.336-1.413,2.005-3.218,2.005-5.414s-0.669-4.001-2.005-5.414c-1.394-1.471-3.218-2.206-5.471-2.206
					c-2.254,0-4.078,0.735-5.471,2.206c-1.337,1.413-2.005,3.218-2.005,5.414s0.668,4.001,2.005,5.414
					C295.259,709.182,297.083,709.917,299.336,709.917z"/>
				<path d="M314.547,692.816v16.9h10.341v2.063h-12.489v-18.963H314.547z"/>
				<path d="M329.815,711.779h-2.148v-18.963h2.148V711.779z"/>
				<path d="M336.604,694.878v6.359h10.542v2.092h-10.542v6.388h11.802v2.063h-13.95v-18.963h13.95v2.062H336.604z"/>
				<path d="M368.228,692.816v18.963h-2.492l-11.716-16.013v16.013h-2.148v-18.963h2.492l11.716,15.955v-15.955H368.228z"/>
				<path d="M380.86,692.816c1.126,0,2.215,0.215,3.266,0.645c1.05,0.43,1.977,1.055,2.778,1.876
					c1.776,1.814,2.664,4.135,2.664,6.961s-0.888,5.146-2.664,6.961c-0.802,0.821-1.729,1.446-2.778,1.876
					c-1.051,0.43-2.139,0.645-3.266,0.645h-7.992v-18.963H380.86z M380.774,709.745c1.986,0,3.6-0.734,4.841-2.205
					c1.203-1.413,1.805-3.161,1.805-5.242s-0.602-3.829-1.805-5.242c-1.241-1.471-2.855-2.206-4.841-2.206h-5.758v14.896H380.774z"
					/>
				<path d="M409.22,711.779h-2.377l-2.32-5.5h-9.396l-2.32,5.5h-2.377l8.049-18.963h2.693L409.22,711.779z M403.691,704.303
					l-3.867-9.253l-3.867,9.253H403.691z"/>
			</g>
		</g>
		<g opacity="0.5">
			<g>
				<path d="M219.445,731.574c1.126,0,2.215,0.215,3.266,0.645c1.05,0.43,1.977,1.055,2.778,1.876
					c1.776,1.814,2.664,4.135,2.664,6.961s-0.888,5.146-2.664,6.961c-0.802,0.821-1.729,1.446-2.778,1.876
					c-1.051,0.43-2.139,0.645-3.266,0.645h-7.992v-18.963H219.445z M219.359,748.503c1.986,0,3.6-0.734,4.841-2.205
					c1.203-1.413,1.805-3.161,1.805-5.242s-0.602-3.829-1.805-5.242c-1.241-1.471-2.855-2.206-4.841-2.206h-5.758v14.896H219.359z"
					/>
				<path d="M233.768,733.636v6.359h10.542v2.092h-10.542v6.388h11.802v2.063h-13.95v-18.963h13.95v2.062H233.768z"/>
				<path d="M273.585,731.574v18.963h-2.148v-15.698l-7.018,9.023l-7.133-9.023v15.698h-2.148v-18.963h2.492l6.789,8.994
					l6.674-8.994H273.585z"/>
				<path d="M280.374,750.537h-2.148v-18.963h2.148V750.537z"/>
				<path d="M301.371,731.574v18.963h-2.492l-11.716-16.013v16.013h-2.148v-18.963h2.492l11.716,15.955v-15.955H301.371z"/>
				<path d="M308.16,733.636v6.359h10.542v2.092H308.16v6.388h11.802v2.063h-13.95v-18.963h13.95v2.062H308.16z"/>
				<path d="M325.576,750.537h-2.148v-18.963h9.081c1.929,0,3.476,0.534,4.641,1.604c1.165,1.051,1.748,2.492,1.748,4.325
					c0,2.368-0.984,3.982-2.951,4.842c-0.554,0.248-1.098,0.43-1.633,0.544l4.984,7.648h-2.549l-4.583-7.276h-6.588V750.537z
					 M325.576,741.227h6.56c2.024,0,3.418-0.631,4.183-1.891c0.286-0.478,0.43-1.089,0.43-1.834c0-1.203-0.411-2.152-1.232-2.85
					c-0.821-0.697-1.91-1.046-3.266-1.046h-6.674V741.227z"/>
				<path d="M359.148,750.537h-2.377l-2.32-5.5h-9.396l-2.32,5.5h-2.377l8.049-18.963h2.693L359.148,750.537z M353.619,743.06
					l-3.867-9.253l-3.867,9.253H353.619z"/>
				<path d="M363.702,731.574v16.9h10.341v2.063h-12.489v-18.963H363.702z"/>
				<path d="M378.97,733.636v6.359h10.542v2.092H378.97v6.388h11.802v2.063h-13.95v-18.963h13.95v2.062H378.97z"/>
				<path d="M396.186,734.481c-0.363,0.314-0.606,0.664-0.73,1.045c-0.125,0.383-0.187,0.788-0.187,1.218s0.187,0.826,0.559,1.188
					c0.373,0.363,0.864,0.669,1.476,0.917c0.611,0.248,1.308,0.469,2.091,0.659c0.783,0.19,1.58,0.387,2.392,0.587
					c0.812,0.2,1.608,0.43,2.392,0.688s1.48,0.587,2.091,0.988c1.356,0.859,2.034,2.034,2.034,3.523
					c0,1.776-0.664,3.132-1.991,4.067c-1.328,0.937-3.166,1.404-5.514,1.404c-2.655,0-4.679-0.554-6.073-1.662
					c-1.242-0.992-1.948-2.406-2.12-4.239h2.234c0.076,1.299,0.707,2.292,1.891,2.979c1.031,0.592,2.396,0.888,4.096,0.888
					c3.552,0,5.328-1.117,5.328-3.352c0-0.764-0.32-1.365-0.959-1.805c-0.64-0.439-1.442-0.802-2.406-1.089
					c-0.964-0.286-2.005-0.554-3.122-0.802c-1.117-0.248-2.159-0.568-3.123-0.96c-0.964-0.391-1.767-0.906-2.406-1.547
					c-0.64-0.64-0.959-1.504-0.959-2.592c0-1.547,0.591-2.808,1.776-3.781c1.184-0.974,2.969-1.461,5.356-1.461
					c2.406,0,4.269,0.554,5.586,1.661c1.203,0.974,1.843,2.226,1.919,3.753h-2.206c-0.191-1.565-1.203-2.607-3.037-3.123
					c-0.649-0.19-1.457-0.286-2.42-0.286c-0.965,0-1.776,0.11-2.435,0.329C397.059,733.899,396.548,734.166,396.186,734.481z"/>
			</g>
		</g>
	</g>
	<g>
		<path fill="#242729" d="M884.29,878.484H21.333V15.527H884.29V878.484z M23.333,876.484H882.29V17.527H23.333V876.484z"/>
		<path fill="#242729" d="M867.381,861.576H38.242V32.436h829.14V861.576z M42.242,857.576h821.14V36.436H42.242V857.576z"/>
	</g>
</g>
</svg>
