<?xml version="1.0" encoding="utf-8"?>
<!-- Generator: Adobe Illustrator 19.1.0, SVG Export Plug-In . SVG Version: 6.00 Build 0)  -->
<svg version="1.1" xmlns="http://www.w3.org/2000/svg" xmlns:xlink="http://www.w3.org/1999/xlink" x="0px" y="0px"
	 viewBox="0 0 142 142" enable-background="new 0 0 142 142" xml:space="preserve">
<g id="Layer_1">
</g>
<g id="Layer_2">
	<g>
		<path d="M132.498,31.023c0-11.903-9.684-21.588-21.587-21.588c-8.75,0-16.286,5.243-19.672,12.744l-20.224,40.39L50.767,22.19
			C47.383,14.683,39.845,9.434,31.09,9.434c-11.903,0-21.588,9.685-21.588,21.588c0,3.139,0.689,6.115,1.899,8.808l-0.084,0.042
			l39.27,78.258l0.059-0.03c2.953,8.408,10.951,14.464,20.355,14.464c9.4,0,17.395-6.051,20.35-14.454l0.039,0.02l39.27-78.258
			l-0.065-0.033C131.807,37.145,132.498,34.165,132.498,31.023z M110.911,12.254c10.349,0,18.767,8.42,18.767,18.769
			S121.26,49.79,110.911,49.79s-18.769-8.418-18.769-18.767S100.562,12.254,110.911,12.254z M89.376,32.076
			c0.555,11.412,9.988,20.533,21.535,20.533c4.46,0,8.609-1.36,12.053-3.687l-30.447,60.675c-0.207-3.252-1.117-6.313-2.611-9.019
			l0.055-0.027L72.59,65.727L89.376,32.076z M83.099,93.11c-3.453-2.346-7.618-3.72-12.099-3.72c-4.46,0-8.609,1.36-12.054,3.687
			l12.068-24.192L83.099,93.11z M52.068,100.551l0.032,0.016c-1.504,2.72-2.418,5.8-2.62,9.072L18.999,48.896
			c3.452,2.343,7.614,3.714,12.091,3.714c11.566,0,21.009-9.15,21.536-20.588L69.44,65.727L52.068,100.551z M31.09,12.254
			c10.349,0,18.767,8.42,18.767,18.769S41.439,49.79,31.09,49.79s-18.769-8.418-18.769-18.767S20.741,12.254,31.09,12.254z
			 M71.001,129.746c-10.349,0-18.769-8.42-18.769-18.769s8.42-18.767,18.769-18.767s18.767,8.418,18.767,18.767
			S81.35,129.746,71.001,129.746z"/>
	</g>
</g>
</svg>
